<svg width="44" height="44" viewBox="0 0 44 44" fill="none" xmlns="http://www.w3.org/2000/svg">
<rect width="44" height="44" rx="22" fill="#EBEBEB"/>
<g clip-path="url(#clip0_5_39)">
<path d="M23.9443 20.7429C25.0183 21.8169 25.0183 23.5581 23.9443 24.6321C22.8703 25.7061 21.1291 25.7061 20.0551 24.6321C18.9811 23.5581 18.9811 21.8169 20.0551 20.7429C21.1291 19.6689 22.8703 19.6689 23.9443 20.7429Z" fill="#989898"/>
<path d="M30.25 15.1248H28.3499L26.9742 12.3747H17.0245L15.6502 15.1262L13.7528 15.1295C12.2401 15.1322 11.0087 16.3649 11.0074 17.8783L11 28.8746C11 30.3913 12.2334 31.6253 13.7501 31.6253H30.25C31.7667 31.6253 33.0001 30.392 33.0001 28.8752V17.8749C33 16.3582 31.7666 15.1248 30.25 15.1248ZM21.9997 28.1877C18.9669 28.1877 16.4995 25.7203 16.4995 22.6875C16.4995 19.6547 18.9669 17.1873 21.9997 17.1873C25.0324 17.1873 27.4999 19.6547 27.4999 22.6875C27.4999 25.7203 25.0324 28.1877 21.9997 28.1877Z" fill="#989898"/>
</g>
<defs>
<clipPath id="clip0_5_39">
<rect width="22" height="22" fill="white" transform="translate(11 11)"/>
</clipPath>
</defs>
</svg>
