<svg width="44" height="44" viewBox="0 0 44 44" fill="none" xmlns="http://www.w3.org/2000/svg">
<rect width="44" height="44" rx="22" fill="#3137C9"/>
<g clip-path="url(#clip0_5_40)">
<path d="M31.6479 21.9482L15.8625 14.6626C15.6112 14.5485 15.3113 14.6165 15.1364 14.8326C14.9603 15.0488 14.9543 15.356 15.1218 15.5782L20.3128 22.4995L15.1218 29.4207C14.9543 29.6429 14.9603 29.9513 15.1352 30.1663C15.253 30.3132 15.429 30.3921 15.6075 30.3921C15.6937 30.3921 15.78 30.3739 15.8613 30.3363L31.6466 23.0507C31.8628 22.9512 32 22.7362 32 22.4995C32 22.2627 31.8628 22.0477 31.6479 21.9482Z" fill="white"/>
</g>
<defs>
<clipPath id="clip0_5_40">
<rect width="17" height="17" fill="white" transform="translate(15 14)"/>
</clipPath>
</defs>
</svg>
